STARTFONT 2.1
FONT -FontForge-Calibri-Book-R-Normal--16-150-75-75-P-77-ISO10646-1
SIZE 15 75 75
FONTBOUNDINGBOX 17 17 -1 -3
COMMENT "Generated by fontforge, http://fontforge.sourceforge.net"
COMMENT "(c) 2012 Microsoft Corporation. All Rights Reserved."
STARTPROPERTIES 40
FOUNDRY "FontForge"
FAMILY_NAME "Calibri"
WEIGHT_NAME "Book"
SLANT "R"
SETWIDTH_NAME "Normal"
ADD_STYLE_NAME ""
PIXEL_SIZE 16
POINT_SIZE 150
RESOLUTION_X 75
RESOLUTION_Y 75
SPACING "P"
AVERAGE_WIDTH 77
CHARSET_REGISTRY "ISO10646"
CHARSET_ENCODING "1"
FONTNAME_REGISTRY ""
CHARSET_COLLECTIONS "ISO8859-2 ISO8859-5 ISO8859-7 ISO8859-9 ISO8859-4 ISO10646-1"
FONT_NAME "Calibri"
FACE_NAME "Calibri"
COPYRIGHT "(c) 2012 Microsoft Corporation. All Rights Reserved."
FONT_VERSION "5.72"
FONT_ASCENT 13
FONT_DESCENT 3
UNDERLINE_POSITION -2
UNDERLINE_THICKNESS 2
X_HEIGHT 6
CAP_HEIGHT 9
DEFAULT_CHAR 1
RAW_ASCENT 750
RAW_DESCENT 250
RELATIVE_WEIGHT 40
RELATIVE_SETWIDTH 50
SUPERSCRIPT_X 0
SUPERSCRIPT_Y 7
SUPERSCRIPT_SIZE 10
SUBSCRIPT_X 0
SUBSCRIPT_Y 2
SUBSCRIPT_SIZE 10
FIGURE_WIDTH 8
AVG_LOWERCASE_WIDTH 74
AVG_UPPERCASE_WIDTH 88
ENDPROPERTIES
CHARS 219
STARTCHAR exclam
ENCODING 33
SWIDTH 325 0
DWIDTH 5 0
BBX 1 11 2 0
BITMAP
80
80
80
80
80
80
80
80
00
80
80
ENDCHAR
STARTCHAR quotedbl
ENCODING 34
SWIDTH 400 0
DWIDTH 6 0
BBX 4 4 1 7
BITMAP
90
90
90
90
ENDCHAR
STARTCHAR numbersign
ENCODING 35
SWIDTH 498 0
DWIDTH 8 0
BBX 8 10 0 0
BITMAP
22
22
22
FF
22
44
FF
44
44
44
ENDCHAR
STARTCHAR dollar
ENCODING 36
SWIDTH 506 0
DWIDTH 8 0
BBX 6 14 1 -2
BITMAP
10
10
78
84
80
80
60
18
04
04
84
78
20
20
ENDCHAR
STARTCHAR percent
ENCODING 37
SWIDTH 714 0
DWIDTH 11 0
BBX 10 10 0 0
BITMAP
6100
9100
9200
9400
6400
0980
0A40
1240
2240
2180
ENDCHAR
STARTCHAR ampersand
ENCODING 38
SWIDTH 682 0
DWIDTH 11 0
BBX 9 11 1 0
BITMAP
3800
4400
4400
4800
3000
5100
8900
8500
8200
8500
7880
ENDCHAR
STARTCHAR quotesingle
ENCODING 39
SWIDTH 220 0
DWIDTH 4 0
BBX 1 4 1 7
BITMAP
80
80
80
80
ENDCHAR
STARTCHAR parenleft
ENCODING 40
SWIDTH 303 0
DWIDTH 5 0
BBX 3 14 1 -3
BITMAP
20
40
40
80
80
80
80
80
80
80
80
40
40
20
ENDCHAR
STARTCHAR parenright
ENCODING 41
SWIDTH 303 0
DWIDTH 5 0
BBX 3 14 1 -3
BITMAP
80
40
40
20
20
20
20
20
20
20
20
40
40
80
ENDCHAR
STARTCHAR asterisk
ENCODING 42
SWIDTH 498 0
DWIDTH 8 0
BBX 5 6 1 5
BITMAP
20
A8
70
70
A8
20
ENDCHAR
STARTCHAR plus
ENCODING 43
SWIDTH 498 0
DWIDTH 8 0
BBX 7 7 0 1
BITMAP
10
10
10
FE
10
10
10
ENDCHAR
STARTCHAR comma
ENCODING 44
SWIDTH 249 0
DWIDTH 4 0
BBX 2 4 0 -2
BITMAP
40
40
40
80
ENDCHAR
STARTCHAR hyphen
ENCODING 45
SWIDTH 306 0
DWIDTH 5 0
BBX 3 1 1 3
BITMAP
E0
ENDCHAR
STARTCHAR period
ENCODING 46
SWIDTH 252 0
DWIDTH 4 0
BBX 1 2 1 0
BITMAP
80
80
ENDCHAR
STARTCHAR slash
ENCODING 47
SWIDTH 386 0
DWIDTH 6 0
BBX 6 13 0 -2
BITMAP
04
04
08
08
10
10
20
20
20
40
40
80
80
ENDCHAR
STARTCHAR zero
ENCODING 48
SWIDTH 506 0
DWIDTH 8 0
BBX 6 10 1 0
BITMAP
78
84
84
84
84
84
84
84
84
78
ENDCHAR
STARTCHAR one
ENCODING 49
SWIDTH 506 0
DWIDTH 8 0
BBX 5 10 2 0
BITMAP
20
60
A0
20
20
20
20
20
20
F8
ENDCHAR
STARTCHAR two
ENCODING 50
SWIDTH 506 0
DWIDTH 8 0
BBX 6 10 1 0
BITMAP
78
84
04
04
08
08
10
20
40
FC
ENDCHAR
STARTCHAR three
ENCODING 51
SWIDTH 506 0
DWIDTH 8 0
BBX 6 10 1 0
BITMAP
78
84
04
04
78
04
04
04
84
78
ENDCHAR
STARTCHAR four
ENCODING 52
SWIDTH 506 0
DWIDTH 8 0
BBX 6 10 1 0
BITMAP
18
18
28
28
48
48
88
FC
08
08
ENDCHAR
STARTCHAR five
ENCODING 53
SWIDTH 506 0
DWIDTH 8 0
BBX 6 10 1 0
BITMAP
7C
40
40
40
78
04
04
04
84
78
ENDCHAR
STARTCHAR six
ENCODING 54
SWIDTH 506 0
DWIDTH 8 0
BBX 6 10 1 0
BITMAP
3C
40
80
80
B8
C4
84
84
84
78
ENDCHAR
STARTCHAR seven
ENCODING 55
SWIDTH 506 0
DWIDTH 8 0
BBX 6 10 1 0
BITMAP
FC
04
08
08
10
10
10
20
20
40
ENDCHAR
STARTCHAR eight
ENCODING 56
SWIDTH 506 0
DWIDTH 8 0
BBX 6 10 1 0
BITMAP
78
84
84
84
78
84
84
84
84
78
ENDCHAR
STARTCHAR nine
ENCODING 57
SWIDTH 506 0
DWIDTH 8 0
BBX 6 10 1 0
BITMAP
78
84
84
84
8C
74
04
04
08
F0
ENDCHAR
STARTCHAR colon
ENCODING 58
SWIDTH 267 0
DWIDTH 4 0
BBX 1 7 1 0
BITMAP
80
80
00
00
00
80
80
ENDCHAR
STARTCHAR semicolon
ENCODING 59
SWIDTH 267 0
DWIDTH 4 0
BBX 2 9 0 -2
BITMAP
40
40
00
00
00
40
40
40
80
ENDCHAR
STARTCHAR less
ENCODING 60
SWIDTH 498 0
DWIDTH 8 0
BBX 6 7 1 1
BITMAP
04
18
60
80
60
18
04
ENDCHAR
STARTCHAR equal
ENCODING 61
SWIDTH 498 0
DWIDTH 8 0
BBX 7 4 0 3
BITMAP
FE
00
00
FE
ENDCHAR
STARTCHAR greater
ENCODING 62
SWIDTH 498 0
DWIDTH 8 0
BBX 6 7 1 1
BITMAP
80
60
18
04
18
60
80
ENDCHAR
STARTCHAR question
ENCODING 63
SWIDTH 463 0
DWIDTH 7 0
BBX 5 11 1 0
BITMAP
70
88
08
08
08
30
20
20
00
20
20
ENDCHAR
STARTCHAR at
ENCODING 64
SWIDTH 894 0
DWIDTH 14 0
BBX 12 12 1 -2
BITMAP
0FC0
3020
4010
4690
8990
9090
9110
9320
8CC0
4000
6000
1F80
ENDCHAR
STARTCHAR A
ENCODING 65
SWIDTH 578 0
DWIDTH 9 0
BBX 9 10 0 0
BITMAP
0800
0800
1400
1400
2200
2200
7F00
4100
8080
8080
ENDCHAR
STARTCHAR B
ENCODING 66
SWIDTH 543 0
DWIDTH 9 0
BBX 7 10 1 0
BITMAP
F8
84
84
84
F8
84
82
82
82
FC
ENDCHAR
STARTCHAR C
ENCODING 67
SWIDTH 533 0
DWIDTH 9 0
BBX 8 10 1 0
BITMAP
3E
41
80
80
80
80
80
80
41
3E
ENDCHAR
STARTCHAR D
ENCODING 68
SWIDTH 615 0
DWIDTH 10 0
BBX 8 10 1 0
BITMAP
FC
82
81
81
81
81
81
81
82
FC
ENDCHAR
STARTCHAR E
ENCODING 69
SWIDTH 488 0
DWIDTH 8 0
BBX 6 10 1 0
BITMAP
FC
80
80
80
F8
80
80
80
80
FC
ENDCHAR
STARTCHAR F
ENCODING 70
SWIDTH 459 0
DWIDTH 7 0
BBX 5 10 1 0
BITMAP
F8
80
80
80
F8
80
80
80
80
80
ENDCHAR
STARTCHAR G
ENCODING 71
SWIDTH 630 0
DWIDTH 10 0
BBX 8 10 1 0
BITMAP
3E
41
80
80
80
8F
81
81
41
3E
ENDCHAR
STARTCHAR H
ENCODING 72
SWIDTH 623 0
DWIDTH 10 0
BBX 8 10 1 0
BITMAP
81
81
81
81
FF
81
81
81
81
81
ENDCHAR
STARTCHAR I
ENCODING 73
SWIDTH 251 0
DWIDTH 4 0
BBX 1 10 1 0
BITMAP
80
80
80
80
80
80
80
80
80
80
ENDCHAR
STARTCHAR J
ENCODING 74
SWIDTH 318 0
DWIDTH 5 0
BBX 4 10 0 0
BITMAP
10
10
10
10
10
10
10
10
10
E0
ENDCHAR
STARTCHAR K
ENCODING 75
SWIDTH 519 0
DWIDTH 8 0
BBX 6 10 1 0
BITMAP
84
88
90
A0
C0
A0
90
90
88
84
ENDCHAR
STARTCHAR L
ENCODING 76
SWIDTH 420 0
DWIDTH 7 0
BBX 6 10 1 0
BITMAP
80
80
80
80
80
80
80
80
80
FC
ENDCHAR
STARTCHAR M
ENCODING 77
SWIDTH 854 0
DWIDTH 13 0
BBX 11 10 1 0
BITMAP
C060
C060
A0A0
A0A0
9120
9120
8A20
8A20
8420
8420
ENDCHAR
STARTCHAR N
ENCODING 78
SWIDTH 645 0
DWIDTH 10 0
BBX 8 10 1 0
BITMAP
C1
A1
A1
91
91
89
89
85
85
83
ENDCHAR
STARTCHAR O
ENCODING 79
SWIDTH 662 0
DWIDTH 11 0
BBX 9 10 1 0
BITMAP
3E00
4100
8080
8080
8080
8080
8080
8080
4100
3E00
ENDCHAR
STARTCHAR P
ENCODING 80
SWIDTH 516 0
DWIDTH 8 0
BBX 6 10 1 0
BITMAP
F8
84
84
84
84
F8
80
80
80
80
ENDCHAR
STARTCHAR Q
ENCODING 81
SWIDTH 672 0
DWIDTH 11 0
BBX 10 11 1 -1
BITMAP
3E00
4100
8080
8080
8080
8080
8080
8080
4100
3F00
00C0
ENDCHAR
STARTCHAR R
ENCODING 82
SWIDTH 542 0
DWIDTH 9 0
BBX 7 10 1 0
BITMAP
F8
84
84
84
84
F8
88
84
84
82
ENDCHAR
STARTCHAR S
ENCODING 83
SWIDTH 459 0
DWIDTH 7 0
BBX 5 10 1 0
BITMAP
70
88
80
80
60
10
08
08
88
70
ENDCHAR
STARTCHAR T
ENCODING 84
SWIDTH 487 0
DWIDTH 8 0
BBX 7 10 0 0
BITMAP
FE
10
10
10
10
10
10
10
10
10
ENDCHAR
STARTCHAR U
ENCODING 85
SWIDTH 641 0
DWIDTH 10 0
BBX 8 10 1 0
BITMAP
81
81
81
81
81
81
81
81
42
3C
ENDCHAR
STARTCHAR V
ENCODING 86
SWIDTH 567 0
DWIDTH 9 0
BBX 9 10 0 0
BITMAP
8080
8080
4100
4100
2200
2200
1400
1400
0800
0800
ENDCHAR
STARTCHAR W
ENCODING 87
SWIDTH 889 0
DWIDTH 14 0
BBX 11 10 1 0
BITMAP
8420
8420
8420
4A40
4A40
4A40
5140
3180
2080
2080
ENDCHAR
STARTCHAR X
ENCODING 88
SWIDTH 519 0
DWIDTH 8 0
BBX 8 10 0 0
BITMAP
81
42
24
24
18
18
24
24
42
81
ENDCHAR
STARTCHAR Y
ENCODING 89
SWIDTH 487 0
DWIDTH 8 0
BBX 7 10 0 0
BITMAP
82
44
44
28
28
10
10
10
10
10
ENDCHAR
STARTCHAR Z
ENCODING 90
SWIDTH 468 0
DWIDTH 8 0
BBX 7 10 0 0
BITMAP
FE
02
04
08
10
10
20
40
80
FE
ENDCHAR
STARTCHAR bracketleft
ENCODING 91
SWIDTH 306 0
DWIDTH 5 0
BBX 3 14 1 -3
BITMAP
E0
80
80
80
80
80
80
80
80
80
80
80
80
E0
ENDCHAR
STARTCHAR backslash
ENCODING 92
SWIDTH 386 0
DWIDTH 6 0
BBX 6 13 0 -2
BITMAP
80
80
40
40
20
20
10
10
10
08
08
04
04
ENDCHAR
STARTCHAR bracketright
ENCODING 93
SWIDTH 306 0
DWIDTH 5 0
BBX 3 14 1 -3
BITMAP
E0
20
20
20
20
20
20
20
20
20
20
20
20
E0
ENDCHAR
STARTCHAR asciicircum
ENCODING 94
SWIDTH 498 0
DWIDTH 8 0
BBX 7 6 0 4
BITMAP
10
28
28
44
44
82
ENDCHAR
STARTCHAR underscore
ENCODING 95
SWIDTH 498 0
DWIDTH 8 0
BBX 8 1 0 -3
BITMAP
FF
ENDCHAR
STARTCHAR grave
ENCODING 96
SWIDTH 291 0
DWIDTH 5 0
BBX 3 3 1 8
BITMAP
80
40
20
ENDCHAR
STARTCHAR a
ENCODING 97
SWIDTH 479 0
DWIDTH 8 0
BBX 6 7 1 0
BITMAP
78
84
04
7C
84
8C
74
ENDCHAR
STARTCHAR b
ENCODING 98
SWIDTH 525 0
DWIDTH 8 0
BBX 6 11 1 0
BITMAP
80
80
80
80
B8
C4
84
84
84
C4
B8
ENDCHAR
STARTCHAR c
ENCODING 99
SWIDTH 422 0
DWIDTH 7 0
BBX 5 7 1 0
BITMAP
70
88
80
80
80
88
70
ENDCHAR
STARTCHAR d
ENCODING 100
SWIDTH 525 0
DWIDTH 8 0
BBX 6 11 1 0
BITMAP
04
04
04
04
74
8C
84
84
84
8C
74
ENDCHAR
STARTCHAR e
ENCODING 101
SWIDTH 497 0
DWIDTH 8 0
BBX 6 7 1 0
BITMAP
78
84
84
FC
80
80
7C
ENDCHAR
STARTCHAR f
ENCODING 102
SWIDTH 305 0
DWIDTH 5 0
BBX 4 11 0 0
BITMAP
30
40
40
40
F0
40
40
40
40
40
40
ENDCHAR
STARTCHAR g
ENCODING 103
SWIDTH 470 0
DWIDTH 8 0
BBX 7 10 1 -3
BITMAP
7E
84
84
84
78
80
7C
82
82
7C
ENDCHAR
STARTCHAR h
ENCODING 104
SWIDTH 525 0
DWIDTH 8 0
BBX 6 11 1 0
BITMAP
80
80
80
80
B8
C4
84
84
84
84
84
ENDCHAR
STARTCHAR i
ENCODING 105
SWIDTH 229 0
DWIDTH 4 0
BBX 1 9 1 0
BITMAP
80
00
80
80
80
80
80
80
80
ENDCHAR
STARTCHAR j
ENCODING 106
SWIDTH 239 0
DWIDTH 4 0
BBX 3 12 -1 -3
BITMAP
20
00
20
20
20
20
20
20
20
20
20
C0
ENDCHAR
STARTCHAR k
ENCODING 107
SWIDTH 454 0
DWIDTH 7 0
BBX 5 11 1 0
BITMAP
80
80
80
80
88
90
A0
C0
A0
90
88
ENDCHAR
STARTCHAR l
ENCODING 108
SWIDTH 229 0
DWIDTH 4 0
BBX 1 11 1 0
BITMAP
80
80
80
80
80
80
80
80
80
80
80
ENDCHAR
STARTCHAR m
ENCODING 109
SWIDTH 798 0
DWIDTH 12 0
BBX 9 7 1 0
BITMAP
B300
CC80
8880
8880
8880
8880
8880
ENDCHAR
STARTCHAR n
ENCODING 110
SWIDTH 525 0
DWIDTH 8 0
BBX 6 7 1 0
BITMAP
B8
C4
84
84
84
84
84
ENDCHAR
STARTCHAR o
ENCODING 111
SWIDTH 527 0
DWIDTH 8 0
BBX 6 7 1 0
BITMAP
78
84
84
84
84
84
78
ENDCHAR
STARTCHAR p
ENCODING 112
SWIDTH 525 0
DWIDTH 8 0
BBX 6 10 1 -3
BITMAP
B8
C4
84
84
84
C4
B8
80
80
80
ENDCHAR
STARTCHAR q
ENCODING 113
SWIDTH 525 0
DWIDTH 8 0
BBX 6 10 1 -3
BITMAP
74
8C
84
84
84
8C
74
04
04
04
ENDCHAR
STARTCHAR r
ENCODING 114
SWIDTH 348 0
DWIDTH 5 0
BBX 4 7 1 0
BITMAP
B0
C0
80
80
80
80
80
ENDCHAR
STARTCHAR s
ENCODING 115
SWIDTH 391 0
DWIDTH 7 0
BBX 5 7 1 0
BITMAP
78
80
80
70
08
08
F0
ENDCHAR
STARTCHAR t
ENCODING 116
SWIDTH 334 0
DWIDTH 5 0
BBX 4 9 0 0
BITMAP
40
40
F0
40
40
40
40
40
30
ENDCHAR
STARTCHAR u
ENCODING 117
SWIDTH 525 0
DWIDTH 8 0
BBX 6 7 1 0
BITMAP
84
84
84
84
84
8C
74
ENDCHAR
STARTCHAR v
ENCODING 118
SWIDTH 451 0
DWIDTH 7 0
BBX 5 7 1 0
BITMAP
88
88
50
50
50
20
20
ENDCHAR
STARTCHAR w
ENCODING 119
SWIDTH 714 0
DWIDTH 11 0
BBX 9 7 1 0
BITMAP
8880
8880
5500
5500
5500
2200
2200
ENDCHAR
STARTCHAR x
ENCODING 120
SWIDTH 433 0
DWIDTH 7 0
BBX 5 7 1 0
BITMAP
88
50
50
20
50
50
88
ENDCHAR
STARTCHAR y
ENCODING 121
SWIDTH 452 0
DWIDTH 7 0
BBX 5 10 1 -3
BITMAP
88
88
50
50
50
20
20
20
40
40
ENDCHAR
STARTCHAR z
ENCODING 122
SWIDTH 395 0
DWIDTH 6 0
BBX 4 7 1 0
BITMAP
F0
10
20
40
40
80
F0
ENDCHAR
STARTCHAR braceleft
ENCODING 123
SWIDTH 314 0
DWIDTH 5 0
BBX 4 14 1 -3
BITMAP
30
40
40
40
40
40
80
40
40
40
40
40
40
30
ENDCHAR
STARTCHAR bar
ENCODING 124
SWIDTH 460 0
DWIDTH 7 0
BBX 1 14 3 -3
BITMAP
80
80
80
80
80
80
80
80
80
80
80
80
80
80
ENDCHAR
STARTCHAR braceright
ENCODING 125
SWIDTH 314 0
DWIDTH 5 0
BBX 4 14 0 -3
BITMAP
C0
20
20
20
20
20
10
20
20
20
20
20
20
C0
ENDCHAR
STARTCHAR asciitilde
ENCODING 126
SWIDTH 498 0
DWIDTH 8 0
BBX 7 3 0 6
BITMAP
62
92
8C
ENDCHAR
STARTCHAR exclamdown
ENCODING 161
SWIDTH 325 0
DWIDTH 5 0
BBX 1 11 2 -2
BITMAP
80
80
00
80
80
80
80
80
80
80
80
ENDCHAR
STARTCHAR cent
ENCODING 162
SWIDTH 498 0
DWIDTH 8 0
BBX 6 10 1 0
BITMAP
10
38
44
80
80
80
80
44
38
10
ENDCHAR
STARTCHAR sterling
ENCODING 163
SWIDTH 506 0
DWIDTH 8 0
BBX 6 10 1 0
BITMAP
38
44
40
40
F8
40
40
40
40
FC
ENDCHAR
STARTCHAR currency
ENCODING 164
SWIDTH 498 0
DWIDTH 8 0
BBX 6 8 1 1
BITMAP
84
78
84
84
84
84
78
84
ENDCHAR
STARTCHAR yen
ENCODING 165
SWIDTH 506 0
DWIDTH 8 0
BBX 7 10 0 0
BITMAP
82
44
44
28
28
10
7C
10
7C
10
ENDCHAR
STARTCHAR brokenbar
ENCODING 166
SWIDTH 498 0
DWIDTH 8 0
BBX 1 14 3 -3
BITMAP
80
80
80
80
80
80
00
00
80
80
80
80
80
80
ENDCHAR
STARTCHAR section
ENCODING 167
SWIDTH 498 0
DWIDTH 8 0
BBX 6 13 1 -2
BITMAP
38
44
40
60
58
84
84
84
68
18
08
88
70
ENDCHAR
STARTCHAR dieresis
ENCODING 168
SWIDTH 392 0
DWIDTH 6 0
BBX 3 2 1 8
BITMAP
A0
A0
ENDCHAR
STARTCHAR copyright
ENCODING 169
SWIDTH 834 0
DWIDTH 13 0
BBX 11 11 1 0
BITMAP
1F00
60C0
4E40
9120
9020
9020
9020
9120
4E40
60C0
1F00
ENDCHAR
STARTCHAR ordfeminine
ENCODING 170
SWIDTH 402 0
DWIDTH 6 0
BBX 4 7 1 3
BITMAP
E0
10
70
90
70
00
F0
ENDCHAR
STARTCHAR guillemotleft
ENCODING 171
SWIDTH 512 0
DWIDTH 8 0
BBX 6 7 1 1
BITMAP
24
48
48
90
48
48
24
ENDCHAR
STARTCHAR logicalnot
ENCODING 172
SWIDTH 498 0
DWIDTH 8 0
BBX 7 3 0 2
BITMAP
FE
02
02
ENDCHAR
STARTCHAR hyphen.dup1
ENCODING 173
SWIDTH 306 0
DWIDTH 5 0
BBX 3 1 1 3
BITMAP
E0
ENDCHAR
STARTCHAR registered
ENCODING 174
SWIDTH 506 0
DWIDTH 8 0
BBX 6 6 1 5
BITMAP
78
84
B4
B4
84
78
ENDCHAR
STARTCHAR macron
ENCODING 175
SWIDTH 394 0
DWIDTH 6 0
BBX 4 1 1 9
BITMAP
F0
ENDCHAR
STARTCHAR degree
ENCODING 176
SWIDTH 338 0
DWIDTH 5 0
BBX 4 4 1 7
BITMAP
60
90
90
60
ENDCHAR
STARTCHAR plusminus
ENCODING 177
SWIDTH 498 0
DWIDTH 8 0
BBX 7 9 0 0
BITMAP
10
10
10
FE
10
10
10
00
FE
ENDCHAR
STARTCHAR uni00B2
ENCODING 178
SWIDTH 335 0
DWIDTH 5 0
BBX 4 7 0 5
BITMAP
E0
10
10
20
20
40
F0
ENDCHAR
STARTCHAR uni00B3
ENCODING 179
SWIDTH 334 0
DWIDTH 5 0
BBX 4 7 0 5
BITMAP
E0
10
10
60
10
10
E0
ENDCHAR
STARTCHAR acute
ENCODING 180
SWIDTH 291 0
DWIDTH 5 0
BBX 3 3 1 8
BITMAP
20
40
80
ENDCHAR
STARTCHAR mu
ENCODING 181
SWIDTH 549 0
DWIDTH 9 0
BBX 7 10 1 -3
BITMAP
84
84
84
84
84
8C
F6
80
80
80
ENDCHAR
STARTCHAR paragraph
ENCODING 182
SWIDTH 585 0
DWIDTH 9 0
BBX 7 12 1 -2
BITMAP
7E
F2
F2
F2
F2
72
12
12
12
12
12
12
ENDCHAR
STARTCHAR periodcentered
ENCODING 183
SWIDTH 252 0
DWIDTH 4 0
BBX 1 2 1 4
BITMAP
80
80
ENDCHAR
STARTCHAR cedilla
ENCODING 184
SWIDTH 307 0
DWIDTH 5 0
BBX 3 3 1 -3
BITMAP
40
20
C0
ENDCHAR
STARTCHAR uni00B9
ENCODING 185
SWIDTH 246 0
DWIDTH 4 0
BBX 3 7 0 5
BITMAP
60
A0
20
20
20
20
20
ENDCHAR
STARTCHAR ordmasculine
ENCODING 186
SWIDTH 422 0
DWIDTH 7 0
BBX 5 7 1 3
BITMAP
70
88
88
88
70
00
F8
ENDCHAR
STARTCHAR guillemotright
ENCODING 187
SWIDTH 512 0
DWIDTH 8 0
BBX 6 7 1 1
BITMAP
90
48
48
24
48
48
90
ENDCHAR
STARTCHAR onequarter
ENCODING 188
SWIDTH 636 0
DWIDTH 10 0
BBX 9 10 0 0
BITMAP
6100
A200
2200
2400
2800
0B00
1300
2500
2780
4100
ENDCHAR
STARTCHAR onehalf
ENCODING 189
SWIDTH 671 0
DWIDTH 11 0
BBX 10 10 0 0
BITMAP
6100
A200
2200
2400
2800
0B80
1040
2080
2100
43C0
ENDCHAR
STARTCHAR threequarters
ENCODING 190
SWIDTH 675 0
DWIDTH 11 0
BBX 10 10 0 0
BITMAP
E080
1100
6100
1200
E400
0580
0980
1280
13C0
2080
ENDCHAR
STARTCHAR questiondown
ENCODING 191
SWIDTH 463 0
DWIDTH 7 0
BBX 5 11 1 -2
BITMAP
20
20
00
20
20
60
80
80
80
88
70
ENDCHAR
STARTCHAR Agrave
ENCODING 192
SWIDTH 578 0
DWIDTH 9 0
BBX 9 13 0 0
BITMAP
1000
0800
0000
0800
0800
1400
1400
2200
2200
7F00
4100
8080
8080
ENDCHAR
STARTCHAR Aacute
ENCODING 193
SWIDTH 578 0
DWIDTH 9 0
BBX 9 13 0 0
BITMAP
0400
0800
0000
0800
0800
1400
1400
2200
2200
7F00
4100
8080
8080
ENDCHAR
STARTCHAR Acircumflex
ENCODING 194
SWIDTH 578 0
DWIDTH 9 0
BBX 9 13 0 0
BITMAP
1800
2400
0000
0800
0800
1400
1400
2200
2200
7F00
4100
8080
8080
ENDCHAR
STARTCHAR Atilde
ENCODING 195
SWIDTH 578 0
DWIDTH 9 0
BBX 9 14 0 0
BITMAP
1200
2A00
2400
0000
0800
0800
1400
1400
2200
2200
7F00
4100
8080
8080
ENDCHAR
STARTCHAR Adieresis
ENCODING 196
SWIDTH 578 0
DWIDTH 9 0
BBX 9 13 0 0
BITMAP
2400
2400
0000
0800
0800
1400
1400
2200
2200
7F00
4100
8080
8080
ENDCHAR
STARTCHAR Aring
ENCODING 197
SWIDTH 578 0
DWIDTH 9 0
BBX 9 14 0 0
BITMAP
1C00
1400
1C00
0000
0800
0800
1400
1400
2200
2200
7F00
4100
8080
8080
ENDCHAR
STARTCHAR AE
ENCODING 198
SWIDTH 763 0
DWIDTH 12 0
BBX 11 10 0 0
BITMAP
0FE0
0A00
1200
1200
23C0
2200
4200
7E00
8200
83E0
ENDCHAR
STARTCHAR Ccedilla
ENCODING 199
SWIDTH 533 0
DWIDTH 9 0
BBX 8 13 1 -3
BITMAP
3E
41
80
80
80
80
80
80
41
3E
08
04
18
ENDCHAR
STARTCHAR Egrave
ENCODING 200
SWIDTH 488 0
DWIDTH 8 0
BBX 6 13 1 0
BITMAP
20
10
00
FC
80
80
80
F8
80
80
80
80
FC
ENDCHAR
STARTCHAR Eacute
ENCODING 201
SWIDTH 488 0
DWIDTH 8 0
BBX 6 13 1 0
BITMAP
08
10
00
FC
80
80
80
F8
80
80
80
80
FC
ENDCHAR
STARTCHAR Ecircumflex
ENCODING 202
SWIDTH 488 0
DWIDTH 8 0
BBX 6 13 1 0
BITMAP
30
48
00
FC
80
80
80
F8
80
80
80
80
FC
ENDCHAR
STARTCHAR Edieresis
ENCODING 203
SWIDTH 488 0
DWIDTH 8 0
BBX 6 13 1 0
BITMAP
48
48
00
FC
80
80
80
F8
80
80
80
80
FC
ENDCHAR
STARTCHAR Igrave
ENCODING 204
SWIDTH 251 0
DWIDTH 4 0
BBX 2 13 0 0
BITMAP
80
40
00
40
40
40
40
40
40
40
40
40
40
ENDCHAR
STARTCHAR Iacute
ENCODING 205
SWIDTH 251 0
DWIDTH 4 0
BBX 2 13 1 0
BITMAP
40
80
00
80
80
80
80
80
80
80
80
80
80
ENDCHAR
STARTCHAR Icircumflex
ENCODING 206
SWIDTH 251 0
DWIDTH 4 0
BBX 4 13 0 0
BITMAP
60
90
00
40
40
40
40
40
40
40
40
40
40
ENDCHAR
STARTCHAR Idieresis
ENCODING 207
SWIDTH 251 0
DWIDTH 4 0
BBX 4 13 0 0
BITMAP
90
90
00
40
40
40
40
40
40
40
40
40
40
ENDCHAR
STARTCHAR Eth
ENCODING 208
SWIDTH 624 0
DWIDTH 10 0
BBX 9 10 0 0
BITMAP
7E00
4100
4080
4080
F880
4080
4080
4080
4100
7E00
ENDCHAR
STARTCHAR Ntilde
ENCODING 209
SWIDTH 645 0
DWIDTH 10 0
BBX 8 14 1 0
BITMAP
12
2A
24
00
C1
A1
A1
91
91
89
89
85
85
83
ENDCHAR
STARTCHAR Ograve
ENCODING 210
SWIDTH 662 0
DWIDTH 11 0
BBX 9 13 1 0
BITMAP
1000
0800
0000
3E00
4100
8080
8080
8080
8080
8080
8080
4100
3E00
ENDCHAR
STARTCHAR Oacute
ENCODING 211
SWIDTH 662 0
DWIDTH 11 0
BBX 9 13 1 0
BITMAP
0400
0800
0000
3E00
4100
8080
8080
8080
8080
8080
8080
4100
3E00
ENDCHAR
STARTCHAR Ocircumflex
ENCODING 212
SWIDTH 662 0
DWIDTH 11 0
BBX 9 13 1 0
BITMAP
1800
2400
0000
3E00
4100
8080
8080
8080
8080
8080
8080
4100
3E00
ENDCHAR
STARTCHAR Otilde
ENCODING 213
SWIDTH 662 0
DWIDTH 11 0
BBX 9 14 1 0
BITMAP
1200
2A00
2400
0000
3E00
4100
8080
8080
8080
8080
8080
8080
4100
3E00
ENDCHAR
STARTCHAR Odieresis
ENCODING 214
SWIDTH 662 0
DWIDTH 11 0
BBX 9 13 1 0
BITMAP
1200
1200
0000
3E00
4100
8080
8080
8080
8080
8080
8080
4100
3E00
ENDCHAR
STARTCHAR multiply
ENCODING 215
SWIDTH 498 0
DWIDTH 8 0
BBX 5 5 1 2
BITMAP
88
50
20
50
88
ENDCHAR
STARTCHAR Oslash
ENCODING 216
SWIDTH 663 0
DWIDTH 11 0
BBX 9 14 1 -2
BITMAP
0100
0100
3E00
4300
8480
8480
8880
8880
9080
9080
6100
3E00
4000
4000
ENDCHAR
STARTCHAR Ugrave
ENCODING 217
SWIDTH 641 0
DWIDTH 10 0
BBX 8 13 1 0
BITMAP
10
08
00
81
81
81
81
81
81
81
81
42
3C
ENDCHAR
STARTCHAR Uacute
ENCODING 218
SWIDTH 641 0
DWIDTH 10 0
BBX 8 13 1 0
BITMAP
08
10
00
81
81
81
81
81
81
81
81
42
3C
ENDCHAR
STARTCHAR Ucircumflex
ENCODING 219
SWIDTH 641 0
DWIDTH 10 0
BBX 8 13 1 0
BITMAP
18
24
00
81
81
81
81
81
81
81
81
42
3C
ENDCHAR
STARTCHAR Udieresis
ENCODING 220
SWIDTH 641 0
DWIDTH 10 0
BBX 8 13 1 0
BITMAP
24
24
00
81
81
81
81
81
81
81
81
42
3C
ENDCHAR
STARTCHAR Yacute
ENCODING 221
SWIDTH 487 0
DWIDTH 8 0
BBX 7 13 0 0
BITMAP
08
10
00
82
44
44
28
28
10
10
10
10
10
ENDCHAR
STARTCHAR Thorn
ENCODING 222
SWIDTH 516 0
DWIDTH 8 0
BBX 6 10 1 0
BITMAP
80
80
F8
84
84
84
84
F8
80
80
ENDCHAR
STARTCHAR germandbls
ENCODING 223
SWIDTH 527 0
DWIDTH 8 0
BBX 6 11 1 0
BITMAP
70
88
88
88
98
A0
A0
98
84
84
B8
ENDCHAR
STARTCHAR agrave
ENCODING 224
SWIDTH 479 0
DWIDTH 8 0
BBX 6 11 1 0
BITMAP
40
20
10
00
78
84
04
7C
84
8C
74
ENDCHAR
STARTCHAR aacute
ENCODING 225
SWIDTH 479 0
DWIDTH 8 0
BBX 6 11 1 0
BITMAP
08
10
20
00
78
84
04
7C
84
8C
74
ENDCHAR
STARTCHAR acircumflex
ENCODING 226
SWIDTH 479 0
DWIDTH 8 0
BBX 6 11 1 0
BITMAP
10
28
44
00
78
84
04
7C
84
8C
74
ENDCHAR
STARTCHAR atilde
ENCODING 227
SWIDTH 479 0
DWIDTH 8 0
BBX 6 11 1 0
BITMAP
48
A8
90
00
78
84
04
7C
84
8C
74
ENDCHAR
STARTCHAR adieresis
ENCODING 228
SWIDTH 479 0
DWIDTH 8 0
BBX 6 10 1 0
BITMAP
28
28
00
78
84
04
7C
84
8C
74
ENDCHAR
STARTCHAR aring
ENCODING 229
SWIDTH 479 0
DWIDTH 8 0
BBX 6 11 1 0
BITMAP
38
28
38
00
78
84
04
7C
84
8C
74
ENDCHAR
STARTCHAR ae
ENCODING 230
SWIDTH 772 0
DWIDTH 12 0
BBX 10 7 1 0
BITMAP
7780
8840
0840
7FC0
8800
8800
77C0
ENDCHAR
STARTCHAR ccedilla
ENCODING 231
SWIDTH 422 0
DWIDTH 7 0
BBX 5 10 1 -3
BITMAP
70
88
80
80
80
88
70
20
10
60
ENDCHAR
STARTCHAR egrave
ENCODING 232
SWIDTH 497 0
DWIDTH 8 0
BBX 6 11 1 0
BITMAP
40
20
10
00
78
84
84
FC
80
80
7C
ENDCHAR
STARTCHAR eacute
ENCODING 233
SWIDTH 497 0
DWIDTH 8 0
BBX 6 11 1 0
BITMAP
08
10
20
00
78
84
84
FC
80
80
7C
ENDCHAR
STARTCHAR ecircumflex
ENCODING 234
SWIDTH 497 0
DWIDTH 8 0
BBX 6 11 1 0
BITMAP
10
28
44
00
78
84
84
FC
80
80
7C
ENDCHAR
STARTCHAR edieresis
ENCODING 235
SWIDTH 497 0
DWIDTH 8 0
BBX 6 10 1 0
BITMAP
28
28
00
78
84
84
FC
80
80
7C
ENDCHAR
STARTCHAR igrave
ENCODING 236
SWIDTH 229 0
DWIDTH 4 0
BBX 3 11 0 0
BITMAP
80
40
20
00
40
40
40
40
40
40
40
ENDCHAR
STARTCHAR iacute
ENCODING 237
SWIDTH 229 0
DWIDTH 4 0
BBX 3 11 0 0
BITMAP
20
40
80
00
40
40
40
40
40
40
40
ENDCHAR
STARTCHAR icircumflex
ENCODING 238
SWIDTH 229 0
DWIDTH 4 0
BBX 5 11 -1 0
BITMAP
20
50
88
00
20
20
20
20
20
20
20
ENDCHAR
STARTCHAR idieresis
ENCODING 239
SWIDTH 229 0
DWIDTH 4 0
BBX 3 10 0 0
BITMAP
A0
A0
00
40
40
40
40
40
40
40
ENDCHAR
STARTCHAR eth
ENCODING 240
SWIDTH 525 0
DWIDTH 8 0
BBX 6 11 1 0
BITMAP
24
38
48
08
7C
84
84
84
84
84
78
ENDCHAR
STARTCHAR ntilde
ENCODING 241
SWIDTH 525 0
DWIDTH 8 0
BBX 6 11 1 0
BITMAP
24
54
48
00
B8
C4
84
84
84
84
84
ENDCHAR
STARTCHAR ograve
ENCODING 242
SWIDTH 527 0
DWIDTH 8 0
BBX 6 11 1 0
BITMAP
40
20
10
00
78
84
84
84
84
84
78
ENDCHAR
STARTCHAR oacute
ENCODING 243
SWIDTH 527 0
DWIDTH 8 0
BBX 6 11 1 0
BITMAP
08
10
20
00
78
84
84
84
84
84
78
ENDCHAR
STARTCHAR ocircumflex
ENCODING 244
SWIDTH 527 0
DWIDTH 8 0
BBX 6 11 1 0
BITMAP
10
28
44
00
78
84
84
84
84
84
78
ENDCHAR
STARTCHAR otilde
ENCODING 245
SWIDTH 527 0
DWIDTH 8 0
BBX 6 11 1 0
BITMAP
24
54
48
00
78
84
84
84
84
84
78
ENDCHAR
STARTCHAR odieresis
ENCODING 246
SWIDTH 527 0
DWIDTH 8 0
BBX 6 10 1 0
BITMAP
28
28
00
78
84
84
84
84
84
78
ENDCHAR
STARTCHAR divide
ENCODING 247
SWIDTH 498 0
DWIDTH 8 0
BBX 7 7 0 1
BITMAP
10
10
00
FE
00
10
10
ENDCHAR
STARTCHAR oslash
ENCODING 248
SWIDTH 529 0
DWIDTH 8 0
BBX 6 9 1 -1
BITMAP
04
78
8C
94
A4
A4
C4
78
80
ENDCHAR
STARTCHAR ugrave
ENCODING 249
SWIDTH 525 0
DWIDTH 8 0
BBX 6 11 1 0
BITMAP
40
20
10
00
84
84
84
84
84
8C
74
ENDCHAR
STARTCHAR uacute
ENCODING 250
SWIDTH 525 0
DWIDTH 8 0
BBX 6 11 1 0
BITMAP
08
10
20
00
84
84
84
84
84
8C
74
ENDCHAR
STARTCHAR ucircumflex
ENCODING 251
SWIDTH 525 0
DWIDTH 8 0
BBX 6 11 1 0
BITMAP
10
28
44
00
84
84
84
84
84
8C
74
ENDCHAR
STARTCHAR udieresis
ENCODING 252
SWIDTH 525 0
DWIDTH 8 0
BBX 6 10 1 0
BITMAP
48
48
00
84
84
84
84
84
8C
74
ENDCHAR
STARTCHAR yacute
ENCODING 253
SWIDTH 452 0
DWIDTH 7 0
BBX 5 14 1 -3
BITMAP
08
10
20
00
88
88
50
50
50
20
20
20
40
40
ENDCHAR
STARTCHAR thorn
ENCODING 254
SWIDTH 525 0
DWIDTH 8 0
BBX 6 14 1 -3
BITMAP
80
80
80
80
B8
C4
84
84
84
C4
B8
80
80
80
ENDCHAR
STARTCHAR ydieresis
ENCODING 255
SWIDTH 452 0
DWIDTH 7 0
BBX 5 13 1 -3
BITMAP
50
50
00
88
88
50
50
50
20
20
20
40
40
ENDCHAR
STARTCHAR OE
ENCODING 338
SWIDTH 866 0
DWIDTH 14 0
BBX 12 10 1 0
BITMAP
3FF0
4200
8200
8200
83E0
8200
8200
8200
4200
3FF0
ENDCHAR
STARTCHAR oe
ENCODING 339
SWIDTH 849 0
DWIDTH 14 0
BBX 12 7 1 0
BITMAP
7DE0
8210
8210
83F0
8200
8200
7DF0
ENDCHAR
STARTCHAR Scaron
ENCODING 352
SWIDTH 459 0
DWIDTH 7 0
BBX 5 13 1 0
BITMAP
48
30
00
70
88
80
80
60
10
08
08
88
70
ENDCHAR
STARTCHAR scaron
ENCODING 353
SWIDTH 391 0
DWIDTH 7 0
BBX 5 11 1 0
BITMAP
88
50
20
00
78
80
80
70
08
08
F0
ENDCHAR
STARTCHAR Ydieresis
ENCODING 376
SWIDTH 487 0
DWIDTH 8 0
BBX 7 13 0 0
BITMAP
24
24
00
82
44
44
28
28
10
10
10
10
10
ENDCHAR
STARTCHAR Zcaron
ENCODING 381
SWIDTH 468 0
DWIDTH 8 0
BBX 7 13 0 0
BITMAP
48
30
00
FE
02
04
08
10
10
20
40
80
FE
ENDCHAR
STARTCHAR zcaron
ENCODING 382
SWIDTH 395 0
DWIDTH 6 0
BBX 5 11 1 0
BITMAP
88
50
20
00
F0
10
20
40
40
80
F0
ENDCHAR
STARTCHAR circumflex
ENCODING 710
SWIDTH 395 0
DWIDTH 6 0
BBX 5 3 1 8
BITMAP
20
50
88
ENDCHAR
STARTCHAR macron.dup2
ENCODING 713
SWIDTH 394 0
DWIDTH 6 0
BBX 4 1 1 9
BITMAP
F0
ENDCHAR
STARTCHAR tilde
ENCODING 732
SWIDTH 450 0
DWIDTH 7 0
BBX 5 3 1 8
BITMAP
48
A8
90
ENDCHAR
STARTCHAR hyphen.dup3
ENCODING 8208
SWIDTH 306 0
DWIDTH 5 0
BBX 3 1 1 3
BITMAP
E0
ENDCHAR
STARTCHAR endash
ENCODING 8211
SWIDTH 498 0
DWIDTH 8 0
BBX 8 1 0 4
BITMAP
FF
ENDCHAR
STARTCHAR emdash
ENCODING 8212
SWIDTH 905 0
DWIDTH 14 0
BBX 12 1 1 4
BITMAP
FFF0
ENDCHAR
STARTCHAR quoteleft
ENCODING 8216
SWIDTH 249 0
DWIDTH 4 0
BBX 2 4 1 7
BITMAP
40
80
80
80
ENDCHAR
STARTCHAR quoteright
ENCODING 8217
SWIDTH 249 0
DWIDTH 4 0
BBX 2 4 1 7
BITMAP
40
40
40
80
ENDCHAR
STARTCHAR quotesinglbase
ENCODING 8218
SWIDTH 249 0
DWIDTH 4 0
BBX 2 4 0 -2
BITMAP
40
40
40
80
ENDCHAR
STARTCHAR quotedblleft
ENCODING 8220
SWIDTH 418 0
DWIDTH 7 0
BBX 5 4 1 7
BITMAP
48
90
90
90
ENDCHAR
STARTCHAR quotedblright
ENCODING 8221
SWIDTH 418 0
DWIDTH 7 0
BBX 5 4 1 7
BITMAP
48
48
48
90
ENDCHAR
STARTCHAR quotedblbase
ENCODING 8222
SWIDTH 418 0
DWIDTH 7 0
BBX 5 4 0 -2
BITMAP
48
48
48
90
ENDCHAR
STARTCHAR dagger
ENCODING 8224
SWIDTH 498 0
DWIDTH 8 0
BBX 5 9 1 2
BITMAP
20
20
F8
20
20
20
20
20
20
ENDCHAR
STARTCHAR daggerdbl
ENCODING 8225
SWIDTH 498 0
DWIDTH 8 0
BBX 5 11 1 0
BITMAP
20
20
20
F8
20
20
20
F8
20
20
20
ENDCHAR
STARTCHAR bullet
ENCODING 8226
SWIDTH 498 0
DWIDTH 8 0
BBX 5 5 1 3
BITMAP
70
F8
F8
F8
70
ENDCHAR
STARTCHAR ellipsis
ENCODING 8230
SWIDTH 690 0
DWIDTH 11 0
BBX 9 2 1 0
BITMAP
8880
8880
ENDCHAR
STARTCHAR perthousand
ENCODING 8240
SWIDTH 1038 0
DWIDTH 17 0
BBX 16 10 0 0
BITMAP
6080
9100
9100
9200
6400
04C6
0929
1129
1129
20C6
ENDCHAR
STARTCHAR guilsinglleft
ENCODING 8249
SWIDTH 338 0
DWIDTH 5 0
BBX 3 7 1 1
BITMAP
20
40
40
80
40
40
20
ENDCHAR
STARTCHAR guilsinglright
ENCODING 8250
SWIDTH 338 0
DWIDTH 5 0
BBX 3 7 1 1
BITMAP
80
40
40
20
40
40
80
ENDCHAR
STARTCHAR Euro
ENCODING 8364
SWIDTH 506 0
DWIDTH 8 0
BBX 8 10 0 0
BITMAP
1E
21
40
FC
40
40
FC
40
21
1E
ENDCHAR
STARTCHAR trademark
ENCODING 8482
SWIDTH 705 0
DWIDTH 11 0
BBX 9 5 1 5
BITMAP
E880
4D80
4D80
4A80
4A80
ENDCHAR
STARTCHAR periodcentered.dup4
ENCODING 8729
SWIDTH 252 0
DWIDTH 4 0
BBX 1 2 1 4
BITMAP
80
80
ENDCHAR
STARTCHAR glyph941
ENCODING -1
SWIDTH 498 0
DWIDTH 8 0
BBX 7 14 1 -3
BITMAP
0E
10
10
10
20
FC
20
20
40
40
40
40
80
80
ENDCHAR
ENDFONT
